<svg viewBox="0 0 18 18" xmlns="http://www.w3.org/2000/svg" xmlns:xlink="http://www.w3.org/1999/xlink" width="18.000000" height="18.000000" fill="none">
	<rect id="eva:arrow-ios-back-outline" width="18.000000" height="18.000000" x="0.000000" y="0.000000" fill="rgb(255,255,255)" fill-opacity="0" transform="matrix(1.83697e-16,-1,-1,-1.83697e-16,18,18)" />
	<path id="Vector" d="M5.00446 9.99995C4.87639 10.0003 4.74984 9.97676 4.63412 9.93103C4.51841 9.8853 4.41646 9.81855 4.33577 9.73569L0.195025 5.45038C0.0689321 5.32258 0 5.16228 0 4.99685C0 4.83142 0.0689321 4.67112 0.195025 4.54332L4.48151 0.258013C4.62703 0.112158 4.83613 0.0204347 5.06282 0.00302221C5.28952 -0.0143902 5.51522 0.0439342 5.6903 0.165165C5.86537 0.286395 5.97547 0.460601 5.99637 0.649459C6.01727 0.838317 5.94726 1.02636 5.80175 1.17221L1.96963 5.00042L5.67315 8.82863C5.77799 8.93347 5.84458 9.06113 5.86505 9.19651C5.88552 9.33189 5.85902 9.46932 5.78867 9.59254C5.71832 9.71576 5.60708 9.81962 5.46811 9.89182C5.32913 9.96402 5.16823 10.0015 5.00446 9.99995Z" fill="rgb(255,255,255)" fill-rule="nonzero" transform="matrix(1.9264e-16,-1,-1,-1.9264e-16,14,12.5)" />
</svg>
