<svg viewBox="0 0 20 20" xmlns="http://www.w3.org/2000/svg" xmlns:xlink="http://www.w3.org/1999/xlink" width="20.000000" height="20.000000" fill="none" customFrame="#000000">
	<g id="004-instagram">
		<path id="Shape" d="M6.25 0L13.75 0C17.2013 0 20 2.79875 20 6.25L20 13.75C20 17.2013 17.2013 20 13.75 20L6.25 20C2.79875 20 0 17.2013 0 13.75L0 6.25C0 2.79875 2.79875 0 6.25 0ZM13.75 18.125C16.1625 18.125 18.125 16.1625 18.125 13.75L18.125 6.25C18.125 3.8375 16.1625 1.875 13.75 1.875L6.25 1.875C3.8375 1.875 1.875 3.8375 1.875 6.25L1.875 13.75C1.875 16.1625 3.8375 18.125 6.25 18.125L13.75 18.125Z" fill="rgb(30,40,51)" fill-rule="evenodd" />
		<path id="Shape" d="M5 10C5 7.23875 7.23875 5 10 5C12.7612 5 15 7.23875 15 10C15 12.7612 12.7612 15 10 15C7.23875 15 5 12.7612 5 10ZM6.875 10C6.875 11.7225 8.2775 13.125 10 13.125C11.7225 13.125 13.125 11.7225 13.125 10C13.125 8.27625 11.7225 6.875 10 6.875C8.2775 6.875 6.875 8.27625 6.875 10Z" fill="rgb(30,40,51)" fill-rule="evenodd" />
		<circle id="Oval" cx="15.3752346" cy="4.6252346" r="0.66624999" fill="rgb(30,40,51)" />
	</g>
</svg>
