<svg viewBox="0 0 24.3715 24.3715" xmlns="http://www.w3.org/2000/svg" xmlns:xlink="http://www.w3.org/1999/xlink" width="24.371521" height="24.371521" fill="none">
	<rect id="bx:bx-plus" width="24.371523" height="24.371523" x="0.000061" y="0.000061" fill="rgb(255,255,255)" fill-opacity="0" />
	<path id="Vector" d="M20.5363 10.793L13.573 10.793L13.573 3.82973C13.573 3.06059 12.9495 2.43707 12.1803 2.43707C11.4112 2.43707 10.7877 3.06059 10.7877 3.82973L10.7877 10.793L3.82436 10.793C3.05522 10.793 2.4317 11.4165 2.4317 12.1857C2.4317 12.9548 3.05522 13.5783 3.82436 13.5783L10.7877 13.5783L10.7877 20.5416C10.7877 21.3108 11.4112 21.9343 12.1803 21.9343C12.9495 21.9343 13.573 21.3108 13.573 20.5416L13.573 13.5783L20.5363 13.5783C21.3054 13.5783 21.9289 12.9548 21.9289 12.1857C21.9289 11.4165 21.3054 10.793 20.5363 10.793Z" fill="rgb(255,255,255)" fill-rule="nonzero" />
</svg>
