<svg viewBox="0 0 18 18" xmlns="http://www.w3.org/2000/svg" xmlns:xlink="http://www.w3.org/1999/xlink" width="18.000000" height="18.000000" fill="none">
	<rect id="akar-icons:search" width="18.000000" height="18.000000" x="0.000000" y="0.000000" fill="rgb(255,255,255)" fill-opacity="0" />
	<g id="Group">
		<path id="Vector" d="M15.75 15.75L12.3855 12.3795M12.3828 12.3828C11.1873 13.5784 9.56575 14.25 7.875 14.25C6.18425 14.25 4.56274 13.5784 3.36719 12.3828C2.17165 11.1873 1.5 9.56575 1.5 7.875C1.5 6.18425 2.17165 4.56274 3.36719 3.36719C4.56274 2.17165 6.18425 1.5 7.875 1.5C9.56575 1.5 11.1873 2.17165 12.3828 3.36719C13.5784 4.56274 14.25 6.18425 14.25 7.875C14.25 9.56575 13.5784 11.1873 12.3828 12.3828Z" fill-rule="nonzero" stroke="rgb(255,255,255)" stroke-linecap="round" stroke-width="2" />
	</g>
</svg>
